#!OML:ASF H:\Dans Jumps\Project 1\Capture day 1\Session 1\subject.ASF
:FULLY-SPECIFIED
:DEGREES
204
root 0.132637 16.2732 -15.0739 24.1316 0.668551 -2.18374
lowerback 15.24 -0.0606609 -0.615002
upperback 4.31503 -0.0491136 2.46589
thorax -3.96236 -0.0258038 2.95342
lowerneck -17.8219 0.636112 -1.4331
upperneck 11.4657 1.3241 -0.721122
head 6.39122 0.511164 0.138052
rclavicle -8.54774e-015 -1.55052e-014
rhumerus -28.4488 -24.833 -72.3402
rradius 24.1225
rwrist 33.4453
rhand -16.56 -26.9959
rfingers 7.12502
rthumb 9.65986 -56.7544
lclavicle -8.54774e-015 -1.55052e-014
lhumerus -24.448 11.8251 80.3523
lradius 15.1225
lwrist -2.48624
lhand -24.715 -3.47691
lfingers 7.12502
lthumb 1.78684 26.4954
rfemur -55.1272 -2.65034 23.5628
rtibia 54.6731
rfoot -28.276 -9.626
rtoes -0.425078
lfemur -55.9095 6.56012 -21.5324
ltibia 54.604
lfoot -25.5595 17.1229
ltoes -9.2595
205
root 0.12975 16.2532 -15.0491 24.3584 0.757397 -2.15966
lowerback 15.3998 -0.0565125 -0.613579
upperback 4.27226 -0.0406328 2.47987
thorax -4.09398 -0.0199197 2.9681
lowerneck -17.89 0.612546 -1.45737
upperneck 11.293 1.29512 -0.706335
head 6.34662 0.498875 0.143429
rclavicle 1.09332e-015 -7.95139e-015
rhumerus -28.5389 -24.7871 -72.3082
rradius 24.1587
rwrist 33.4023
rhand -16.537 -27.0087
rfingers 7.12502
rthumb 9.68212 -56.7662
lclavicle 1.09332e-015 -7.95139e-015
lhumerus -24.4716 12.0323 80.2742
lradius 15.0616
lwrist -2.61069
lhand -24.6423 -3.36541
lfingers 7.12502
lthumb 1.85704 26.6063
rfemur -55.3735 -2.58935 23.5431
rtibia 54.8111
rfoot -28.4835 -9.91668
rtoes -0.408565
lfemur -56.1533 6.34706 -21.4802
ltibia 54.7197
lfoot -25.6044 17.4532
ltoes -9.32044
206
root 0.126633 16.2324 -15.0231 24.5883 0.843288 -2.13865
lowerback 15.5684 -0.0492075 -0.6171
upperback 4.22382 -0.0284281 2.4969
thorax -4.23656 -0.012018 2.98832
lowerneck -17.9676 0.591626 -1.47371
upperneck 11.1346 1.26912 -0.69762
head 6.30829 0.487681 0.145964
rclavicle -3.77691e-015 -4.77083e-015
rhumerus -28.6096 -24.7691 -72.2675
rradius 24.1803
rwrist 33.3576
rhand -16.5766 -26.9655
rfingers 7.12502
rthumb 9.64387 -56.7248
lclavicle -3.77691e-015 -4.77083e-015
lhumerus -24.4782 12.29 80.1843
lradius 14.9913
lwrist -2.78319
lhand -24.5524 -3.26054
lfingers 7.12502
lthumb 1.94387 26.7104
rfemur -55.6206 -2.51889 23.5243
rtibia 54.9568
rfoot -28.6939 -10.2073
rtoes -0.390582
lfemur -56.3994 6.14038 -21.4236
ltibia 54.8416
lfoot -25.6459 17.7608
ltoes -9.38877
207
root 0.123764 16.3106 -15.0011 24.8278 0.927891 -2.12575
lowerback 15.7408 -0.0391107 -0.618808
upperback 4.16612 -0.0118967 2.51731
thorax -4.39122 -0.00178535 3.01039
lowerneck -18.0486 0.57019 -1.488
upperneck 10.9892 1.24229 -0.689384
head 6.27473 0.475989 0.147976
rclavicle 1.88845e-015 4.17448e-015
rhumerus -28.6599 -24.7549 -72.2328
rradius 24.1979
rwrist 33.289
rhand -16.639 -26.9352
rfingers 7.12502
rthumb 9.58371 -56.6972
lclavicle 1.88845e-015 4.17448e-015
lhumerus -24.4673 12.6052 80.0782
lradius 14.9165
lwrist -2.98092
lhand -24.4005 -3.09131
lfingers 7.12502
lthumb 2.09055 26.8782
rfemur -55.5046 -2.43942 23.5114
rtibia 54.734
rfoot -28.8907 -10.5042
rtoes -0.376674
lfemur -56.2839 5.94625 -21.3589
ltibia 54.6017
lfoot -25.6892 18.04
ltoes -9.46911
208
root 0.120098 16.2892 -14.9733 25.0794 1.01052 -2.11851
lowerback 15.9156 -0.0257595 -0.623153
upperback 4.10248 0.00884646 2.5415
thorax -4.55385 0.0106842 3.03726
lowerneck -18.1338 0.548489 -1.50512
upperneck 10.848 1.21555 -0.678313
head 6.24314 0.464412 0.151391
rclavicle 4.96962e-015 1.19271e-014
rhumerus -28.6748 -24.7073 -72.2251
rradius 24.2284
rwrist 33.1417
rhand -16.7089 -26.9612
rfingers 7.12502
rthumb 9.51626 -56.7263
lclavicle 4.96962e-015 1.19271e-014
lhumerus -24.4273 12.9935 79.956
lradius 14.833
lwrist -3.20525
lhand -24.1977 -2.84211
lfingers 7.12502
lthumb 2.28647 27.1254
rfemur -55.7681 -2.34639 23.5024
rtibia 54.8855
rfoot -29.0646 -10.8147
rtoes -0.366855
lfemur -56.5556 5.76066 -21.2908
ltibia 54.7354
lfoot -25.7219 18.2909
ltoes -9.50566
209
root 0.11614 16.2668 -14.9447 25.3384 1.09217 -2.11395
lowerback 16.0935 -0.0105885 -0.628829
upperback 4.03497 0.0319542 2.56678
thorax -4.72245 0.024449 3.06565
lowerneck -18.2253 0.525905 -1.52243
upperneck 10.7119 1.18778 -0.666263
head 6.21426 0.45234 0.155075
rclavicle -1.0138e-014 -3.77691e-015
rhumerus -28.6612 -24.6766 -72.2191
rradius 24.2348
rwrist 33.0407
rhand -16.8685 -26.9304
rfingers 7.12502
rthumb 9.36222 -56.7025
lclavicle -1.0138e-014 -3.77691e-015
lhumerus -24.3503 13.452 79.8169
lradius 14.7302
lwrist -3.45381
lhand -23.97 -2.55131
lfingers 7.12502
lthumb 2.50631 27.4137
rfemur -56.0414 -2.24365 23.4935
rtibia 55.0415
rfoot -29.2075 -11.132
rtoes -0.366099
lfemur -56.8402 5.58324 -21.2207
ltibia 54.8784
lfoot -25.7425 18.5138
ltoes -9.50571
210
root 0.11219 16.2436 -14.9145 25.5986 1.1698 -2.11157
lowerback 16.2694 0.00684896 -0.633385
upperback 3.96043 0.0584325 2.59331
thorax -4.89783 0.040019 3.09407
lowerneck -18.3299 0.501274 -1.54124
upperneck 10.5982 1.15879 -0.657847
head 6.1947 0.43904 0.157802
rclavicle -2.38542e-015 0
rhumerus -28.6346 -24.6693 -72.1988
rradius 24.2184
rwrist 32.9961
rhand -17.0982 -26.8146
rfingers 7.12502
rthumb 9.14054 -56.5965
lclavicle -2.38542e-015 0
lhumerus -24.2551 13.9711 79.6666
lradius 14.5915
lwrist -3.73372
lhand -23.9018 -2.45534
lfingers 7.12502
lthumb 2.57221 27.5089
rfemur -56.4114 -2.13429 23.4836
rtibia 55.455
rfoot -29.4916 -11.4587
rtoes -0.35582
lfemur -57.2237 5.42169 -21.1538
ltibia 55.2891
lfoot -25.9082 18.7783
ltoes -9.49677
211
root 0.108232 16.2196 -14.8828 25.8575 1.24121 -2.10936
lowerback 16.443 0.0268219 -0.637291
upperback 3.8818 0.0883305 2.61812
thorax -5.07665 0.0573488 3.11956
lowerneck -18.4479 0.472362 -1.56291
upperneck 10.5029 1.12532 -0.649429
head 6.18322 0.423236 0.160598
rclavicle 3.97569e-015 -1.80894e-014
rhumerus -28.5913 -24.681 -72.1712
rradius 24.1752
rwrist 33.022
rhand -17.3941 -26.6078
rfingers 7.12502
rthumb 8.8551 -56.402
lclavicle 3.97569e-015 -1.80894e-014
lhumerus -24.1381 14.5454 79.5045
lradius 14.4148
lwrist -4.0635
lhand -23.9754 -2.54426
lfingers 7.12502
lthumb 2.5011 27.4208
rfemur -56.7803 -2.01731 23.4689
rtibia 55.8744
rfoot -29.7694 -11.7448
rtoes -0.332996
lfemur -57.6056 5.27515 -21.0917
ltibia 55.71
lfoot -26.0629 19.0258
ltoes -9.47991
212
root 0.104311 16.1946 -14.8491 26.1128 1.30216 -2.1091
lowerback 16.6132 0.0501344 -0.641161
upperback 3.79988 0.12249 2.6401
thorax -5.25752 0.0768167 3.14108
lowerneck -18.5805 0.444697 -1.57468
upperneck 10.4274 1.09324 -0.651754
head 6.18058 0.40737 0.158573
rclavicle -1.09332e-014 -1.78906e-015
rhumerus -28.5165 -24.7031 -72.1514
rradius 24.1046
rwrist 33.0892
rhand -17.7152 -26.369
rfingers 7.12502
rthumb 8.54516 -56.1761
lclavicle -1.09332e-014 -1.78906e-015
lhumerus -24.0047 15.18 79.3268
lradius 14.2036
lwrist -4.47106
lhand -24.2267 -2.85594
lfingers 7.12502
lthumb 2.2584 27.1119
rfemur -57.1453 -1.88994 23.4497
rtibia 56.3029
rfoot -30.0519 -11.9849
rtoes -0.318164
lfemur -57.982 5.14625 -21.033
ltibia 56.1439
lfoot -26.2079 19.2715
ltoes -9.48016
213
root 0.100319 16.1686 -14.8136 26.3656 1.35638 -2.11058
lowerback 16.7856 0.0752891 -0.645131
upperback 3.71315 0.159027 2.65965
thorax -5.44508 0.0975629 3.15953
lowerneck -18.7191 0.417054 -1.58318
upperneck 10.3618 1.06106 -0.656792
head 6.18208 0.391243 0.155156
rclavicle 5.76476e-015 -2.18663e-015
rhumerus -28.3995 -24.7117 -72.1562
rradius 24.0156
rwrist 33.1576
rhand -18.0377 -26.1253
rfingers 7.12502
rthumb 8.23397 -55.9449
lclavicle 5.76476e-015 -2.18663e-015
lhumerus -23.8534 15.9087 79.1213
lradius 13.9544
lwrist -5.01494
lhand -24.5472 -3.25486
lfingers 7.12502
lthumb 1.9489 26.716
rfemur -57.5071 -1.75546 23.4279
rtibia 56.7432
rfoot -30.3416 -12.1882
rtoes -0.310404
lfemur -58.3552 5.03306 -20.9764
ltibia 56.5927
lfoot -26.3495 19.5227
ltoes -9.4934
214
root 0.0961665 16.1412 -14.7765 26.6175 1.40256 -2.11576
lowerback 16.9637 0.102306 -0.65172
upperback 3.61994 0.197605 2.67719
thorax -5.64295 0.119508 3.17692
lowerneck -18.8627 0.394265 -1.58088
upperneck 10.3044 1.03405 -0.669617
head 6.18709 0.377298 0.148049
rclavicle -3.18055e-015 -3.63776e-014
rhumerus -28.2204 -24.6758 -72.212
rradius 23.9235
rwrist 33.1525
rhand -18.2891 -25.9884
rfingers 7.12502
rthumb 7.99133 -55.8174
lclavicle -3.18055e-015 -3.63776e-014
lhumerus -23.6877 16.7508 78.8802
lradius 13.6753
lwrist -5.71413
lhand -24.8779 -3.67235
lfingers 7.12502
lthumb 1.62948 26.3012
rfemur -57.8683 -1.61302 23.4067
rtibia 57.1977
rfoot -30.6321 -12.3811
rtoes -0.319922
lfemur -58.7281 4.93409 -20.9188
ltibia 57.059
lfoot -26.4845 19.7896
ltoes -9.50295
215
root 0.0919541 16.1126 -14.7375 26.8682 1.44099 -2.12645
lowerback 17.1504 0.130424 -0.660513
upperback 3.51717 0.237425 2.69368
thorax -5.85603 0.142351 3.19425
lowerneck -19.0158 0.376204 -1.56797
upperneck 10.2644 1.01217 -0.689808
head 6.19926 0.365442 0.137449
rclavicle -5.76476e-015 2.60408e-014
rhumerus -27.9799 -24.6129 -72.3107
rradius 23.8233
rwrist 33.1062
rhand -18.468 -25.9425
rfingers 7.12502
rthumb 7.81862 -55.778
lclavicle -5.76476e-015 2.60408e-014
lhumerus -23.5095 17.7309 78.5962
lradius 13.3702
lwrist -6.56278
lhand -25.1363 -4.01573
lfingers 7.12502
lthumb 1.37995 25.9596
rfemur -58.226 -1.46736 23.3901
rtibia 57.6663
rfoot -30.919 -12.5839
rtoes -0.318097
lfemur -59.0996 4.8511 -20.86
ltibia 57.5427
lfoot -26.6095 20.0721
ltoes -9.50176
